<svg width="32" height="32" viewBox="0 0 32 32" fill="none" xmlns="http://www.w3.org/2000/svg">
    <path
        d="M32 16C32 24.8366 24.8366 32 16 32C7.16344 32 0 24.8366 0 16C0 7.16344 7.16344 0 16 0C24.8366 0 32 7.16344 32 16Z"
        fill="#D9D9D9" fill-opacity="0.2" />
    <path
        d="M16.0088 15.5752C17.9248 15.5752 19.5508 13.8701 19.5508 11.6641C19.5508 9.51074 17.916 7.8584 16.0088 7.8584C14.0928 7.8584 12.4492 9.53711 12.458 11.6816C12.458 13.8701 14.084 15.5752 16.0088 15.5752ZM10.5244 23.749H21.4756C22.9258 23.749 23.4268 23.3096 23.4268 22.501C23.4268 20.2422 20.5615 17.1309 16 17.1309C11.4473 17.1309 8.57324 20.2422 8.57324 22.501C8.57324 23.3096 9.07422 23.749 10.5244 23.749Z"
        fill="#1C1C1E" />
</svg>
