<svg width="161" height="64" viewBox="0 0 161 64" fill="none" xmlns="http://www.w3.org/2000/svg">
<path d="M27.0925 64C21.7458 63.1777 16.7082 61.0362 12.4401 57.7712C8.17191 54.5062 4.80934 50.2218 2.65964 45.3096C0.509941 40.3974 -0.358337 35.0139 0.134158 29.6513C0.626653 24.2887 2.46421 19.1178 5.47891 14.6113C8.49361 10.1048 12.5893 6.40639 17.3917 3.85401C22.1941 1.30163 27.5501 -0.0232941 32.9701 0.000309946C38.3901 0.023914 43.7014 1.3953 48.4185 3.98913C53.1357 6.58297 57.1082 10.3165 59.9732 14.8486L56.8511 16.8147C54.311 12.7964 50.7888 9.48619 46.6065 7.18645C42.4242 4.8867 37.7151 3.6708 32.9096 3.64988C28.1041 3.62895 23.3554 4.80365 19.0975 7.06664C14.8396 9.32963 11.2083 12.6087 8.53539 16.6043C5.8625 20.5998 4.23328 25.1844 3.79662 29.939C3.35997 34.6937 4.1298 39.4667 6.03577 43.822C7.94174 48.1773 10.9231 51.9759 14.7073 54.8707C18.4915 57.7655 22.9579 59.6642 27.6984 60.3933L27.0925 64Z" fill="url(#paint0_linear_120_228)"/>
<path d="M27.4366 19.5713H34.0837V51.132H27.4366V19.5713Z" fill="url(#paint1_linear_120_228)"/>
<path d="M51.1608 51.4722C48.7463 51.4722 46.5732 50.976 44.6416 49.9835C42.7383 48.9627 41.247 47.559 40.1676 45.7726C39.0881 43.9861 38.5484 41.9586 38.5484 39.6901C38.5484 37.4216 39.0881 35.3941 40.1676 33.6077C41.247 31.8212 42.7383 30.4318 44.6416 29.4393C46.5732 28.4185 48.7463 27.908 51.1608 27.908C53.5754 27.908 55.7343 28.4185 57.6375 29.4393C59.5407 30.4318 61.032 31.8212 62.1115 33.6077C63.1909 35.3941 63.7307 37.4216 63.7307 39.6901C63.7307 41.9586 63.1909 43.9861 62.1115 45.7726C61.032 47.559 59.5407 48.9627 57.6375 49.9835C55.7343 50.976 53.5754 51.4722 51.1608 51.4722ZM51.1608 46.0278C52.8652 46.0278 54.2571 45.4607 55.3366 44.3264C56.4444 43.1638 56.9983 41.6184 56.9983 39.6901C56.9983 37.7619 56.4444 36.2307 55.3366 35.0964C54.2571 33.9338 52.8652 33.3525 51.1608 33.3525C49.4564 33.3525 48.0503 33.9338 46.9425 35.0964C45.8346 36.2307 45.2807 37.7619 45.2807 39.6901C45.2807 41.6184 45.8346 43.1638 46.9425 44.3264C48.0503 45.4607 49.4564 46.0278 51.1608 46.0278Z" fill="url(#paint2_linear_120_228)"/>
<path d="M91.822 28.2483V47.3038C91.822 51.5006 90.7284 54.6198 88.5411 56.6615C86.3538 58.7031 83.1581 59.724 78.9539 59.724C76.7382 59.724 74.6361 59.4546 72.6477 58.9158C70.6593 58.377 69.0117 57.5972 67.705 56.5764L70.3468 51.8125C71.3126 52.6065 72.5341 53.2303 74.0112 53.684C75.4883 54.1661 76.9655 54.4071 78.4426 54.4071C80.7435 54.4071 82.4337 53.8825 83.5132 52.8333C84.621 51.8125 85.1749 50.2529 85.1749 48.1545V47.1762C83.4421 49.0761 81.0276 50.0261 77.9313 50.0261C75.8292 50.0261 73.8976 49.5724 72.1364 48.6649C70.4036 47.7292 69.0259 46.4248 68.0033 44.7518C66.9806 43.0787 66.4693 41.1505 66.4693 38.967C66.4693 36.7836 66.9806 34.8554 68.0033 33.1823C69.0259 31.5093 70.4036 30.2191 72.1364 29.3117C73.8976 28.3759 75.8292 27.908 77.9313 27.908C81.2548 27.908 83.783 28.9998 85.5158 31.1832V28.2483H91.822ZM79.2522 44.5816C81.0134 44.5816 82.4479 44.0712 83.5558 43.0504C84.692 42.0012 85.2601 40.6401 85.2601 38.967C85.2601 37.294 84.692 35.9471 83.5558 34.9263C82.4479 33.8771 81.0134 33.3525 79.2522 33.3525C77.491 33.3525 76.0423 33.8771 74.906 34.9263C73.7698 35.9471 73.2016 37.294 73.2016 38.967C73.2016 40.6401 73.7698 42.0012 74.906 43.0504C76.0423 44.0712 77.491 44.5816 79.2522 44.5816Z" fill="url(#paint3_linear_120_228)"/>
<path d="M98.0087 28.2483H104.656V51.132H98.0087V28.2483ZM101.332 25.0582C100.111 25.0582 99.1166 24.7038 98.3496 23.9949C97.5826 23.2859 97.1992 22.4069 97.1992 21.3577C97.1992 20.3085 97.5826 19.4295 98.3496 18.7206C99.1166 18.0116 100.111 17.6572 101.332 17.6572C102.554 17.6572 103.548 17.9975 104.315 18.678C105.082 19.3586 105.465 20.2093 105.465 21.2301C105.465 22.336 105.082 23.2576 104.315 23.9949C103.548 24.7038 102.554 25.0582 101.332 25.0582Z" fill="url(#paint4_linear_120_228)"/>
<path d="M118.196 26.8872V34.7561H132.002V40.2856H118.196V51.132H111.294V21.3577H133.834V26.8872H118.196Z" fill="url(#paint5_linear_120_228)"/>
<path d="M161 28.2483L150.646 52.5356C149.595 55.1727 148.288 57.0301 146.726 58.1076C145.192 59.1852 143.331 59.724 141.144 59.724C139.951 59.724 138.772 59.5396 137.607 59.171C136.443 58.8024 135.491 58.292 134.752 57.6398L137.181 52.9184C137.693 53.3721 138.275 53.7266 138.928 53.9818C139.61 54.237 140.278 54.3646 140.931 54.3646C141.84 54.3646 142.578 54.1377 143.147 53.684C143.715 53.2587 144.226 52.5356 144.681 51.5148L144.766 51.3021L134.838 28.2483H141.698L148.132 43.7735L154.609 28.2483H161Z" fill="url(#paint6_linear_120_228)"/>
<defs>
<linearGradient id="paint0_linear_120_228" x1="48.6325" y1="36.0085" x2="171.131" y2="48.1021" gradientUnits="userSpaceOnUse">
<stop stop-color="#9EC8B9"/>
<stop offset="1" stop-color="#5C8374" stop-opacity="0.66"/>
</linearGradient>
<linearGradient id="paint1_linear_120_228" x1="48.6325" y1="36.0085" x2="171.131" y2="48.1021" gradientUnits="userSpaceOnUse">
<stop stop-color="#9EC8B9"/>
<stop offset="1" stop-color="#5C8374" stop-opacity="0.66"/>
</linearGradient>
<linearGradient id="paint2_linear_120_228" x1="48.6325" y1="36.0085" x2="171.131" y2="48.1021" gradientUnits="userSpaceOnUse">
<stop stop-color="#9EC8B9"/>
<stop offset="1" stop-color="#5C8374" stop-opacity="0.66"/>
</linearGradient>
<linearGradient id="paint3_linear_120_228" x1="48.6325" y1="36.0085" x2="171.131" y2="48.1021" gradientUnits="userSpaceOnUse">
<stop stop-color="#9EC8B9"/>
<stop offset="1" stop-color="#5C8374" stop-opacity="0.66"/>
</linearGradient>
<linearGradient id="paint4_linear_120_228" x1="48.6325" y1="36.0085" x2="171.131" y2="48.1021" gradientUnits="userSpaceOnUse">
<stop stop-color="#9EC8B9"/>
<stop offset="1" stop-color="#5C8374" stop-opacity="0.66"/>
</linearGradient>
<linearGradient id="paint5_linear_120_228" x1="48.6325" y1="36.0085" x2="171.131" y2="48.1021" gradientUnits="userSpaceOnUse">
<stop stop-color="#9EC8B9"/>
<stop offset="1" stop-color="#5C8374" stop-opacity="0.66"/>
</linearGradient>
<linearGradient id="paint6_linear_120_228" x1="48.6325" y1="36.0085" x2="171.131" y2="48.1021" gradientUnits="userSpaceOnUse">
<stop stop-color="#9EC8B9"/>
<stop offset="1" stop-color="#5C8374" stop-opacity="0.66"/>
</linearGradient>
</defs>
</svg>
