<svg width="81" height="32" viewBox="0 0 81 32" fill="none" xmlns="http://www.w3.org/2000/svg">
<path d="M13.6304 32C10.9404 31.5889 8.40599 30.5181 6.25866 28.8856C4.11134 27.2531 2.41961 25.1109 1.33808 22.6548C0.256554 20.1987 -0.180281 17.507 0.0674955 14.8256C0.315272 12.1443 1.23976 9.5589 2.75647 7.30566C4.27318 5.05241 6.33375 3.20319 8.74986 1.92701C11.166 0.650817 13.8606 -0.011647 16.5874 0.000154973C19.3143 0.011957 21.9864 0.697648 24.3596 1.99457C26.7329 3.29148 28.7315 5.15827 30.1728 7.42432L28.6021 8.40735C27.3242 6.39822 25.5521 4.7431 23.448 3.59322C21.3439 2.44335 18.9747 1.8354 16.557 1.82494C14.1393 1.81447 11.7502 2.40183 9.60807 3.53332C7.46589 4.66482 5.63895 6.30437 4.2942 8.30214C2.94946 10.2999 2.12979 12.5922 1.9101 14.9695C1.69042 17.3468 2.07773 19.7334 3.03663 21.911C3.99553 24.0886 5.49545 25.988 7.39931 27.4354C9.30318 28.8828 11.5503 29.8321 13.9352 30.1966L13.6304 32Z" fill="url(#paint0_linear_122_215)"/>
<path d="M13.8035 9.78563H17.1477V25.566H13.8035V9.78563Z" fill="url(#paint1_linear_122_215)"/>
<path d="M25.7393 25.7361C24.5245 25.7361 23.4312 25.488 22.4594 24.9918C21.5019 24.4813 20.7516 23.7795 20.2085 22.8863C19.6654 21.9931 19.3939 20.9793 19.3939 19.8451C19.3939 18.7108 19.6654 17.6971 20.2085 16.8038C20.7516 15.9106 21.5019 15.2159 22.4594 14.7196C23.4312 14.2092 24.5245 13.954 25.7393 13.954C26.9541 13.954 28.0402 14.2092 28.9977 14.7196C29.9553 15.2159 30.7056 15.9106 31.2486 16.8038C31.7917 17.6971 32.0632 18.7108 32.0632 19.8451C32.0632 20.9793 31.7917 21.9931 31.2486 22.8863C30.7056 23.7795 29.9553 24.4813 28.9977 24.9918C28.0402 25.488 26.9541 25.7361 25.7393 25.7361ZM25.7393 23.0139C26.5968 23.0139 27.2971 22.7303 27.8401 22.1632C28.3975 21.5819 28.6762 20.8092 28.6762 19.8451C28.6762 18.8809 28.3975 18.1153 27.8401 17.5482C27.2971 16.9669 26.5968 16.6762 25.7393 16.6762C24.8818 16.6762 24.1744 16.9669 23.617 17.5482C23.0597 18.1153 22.781 18.8809 22.781 19.8451C22.781 20.8092 23.0597 21.5819 23.617 22.1632C24.1744 22.7303 24.8818 23.0139 25.7393 23.0139Z" fill="url(#paint2_linear_122_215)"/>
<path d="M46.1962 14.1242V23.6519C46.1962 25.7503 45.646 27.3099 44.5455 28.3307C43.4451 29.3516 41.8373 29.862 39.7222 29.862C38.6074 29.862 37.5499 29.7273 36.5495 29.4579C35.5491 29.1885 34.7202 28.7986 34.0628 28.2882L35.3919 25.9063C35.8778 26.3032 36.4923 26.6152 37.2355 26.842C37.9786 27.083 38.7218 27.2036 39.4649 27.2036C40.6225 27.2036 41.4729 26.9413 42.0159 26.4167C42.5733 25.9063 42.852 25.1265 42.852 24.0773V23.5881C41.9802 24.5381 40.7654 25.013 39.2077 25.013C38.1501 25.013 37.1783 24.7862 36.2922 24.3325C35.4204 23.8646 34.7273 23.2124 34.2128 22.3759C33.6983 21.5394 33.4411 20.5752 33.4411 19.4835C33.4411 18.3918 33.6983 17.4277 34.2128 16.5912C34.7273 15.7547 35.4204 15.1095 36.2922 14.6558C37.1783 14.188 38.1501 13.954 39.2077 13.954C40.8798 13.954 42.1517 14.4999 43.0235 15.5916V14.1242H46.1962ZM39.8722 22.2908C40.7583 22.2908 41.48 22.0356 42.0374 21.5252C42.609 21.0006 42.8949 20.32 42.8949 19.4835C42.8949 18.647 42.609 17.9735 42.0374 17.4631C41.48 16.9385 40.7583 16.6762 39.8722 16.6762C38.9862 16.6762 38.2573 16.9385 37.6856 17.4631C37.114 17.9735 36.8282 18.647 36.8282 19.4835C36.8282 20.32 37.114 21.0006 37.6856 21.5252C38.2573 22.0356 38.9862 22.2908 39.8722 22.2908Z" fill="url(#paint3_linear_122_215)"/>
<path d="M49.3087 14.1242H52.6529V25.566H49.3087V14.1242ZM50.9808 12.5291C50.3663 12.5291 49.8661 12.3519 49.4802 11.9974C49.0944 11.643 48.9014 11.2034 48.9014 10.6789C48.9014 10.1543 49.0944 9.71473 49.4802 9.36028C49.8661 9.00582 50.3663 8.8286 50.9808 8.8286C51.5954 8.8286 52.0956 8.99873 52.4814 9.33901C52.8673 9.67929 53.0602 10.1046 53.0602 10.6151C53.0602 11.168 52.8673 11.6288 52.4814 11.9974C52.0956 12.3519 51.5954 12.5291 50.9808 12.5291Z" fill="url(#paint4_linear_122_215)"/>
<path d="M59.4652 13.4436V17.3781H66.4109V20.1428H59.4652V25.566H55.9924V10.6789H67.3327V13.4436H59.4652Z" fill="url(#paint5_linear_122_215)"/>
<path d="M81 14.1242L75.7908 26.2678C75.262 27.5864 74.6046 28.515 73.8186 29.0538C73.0468 29.5926 72.1107 29.862 71.0103 29.862C70.4101 29.862 69.817 29.7698 69.231 29.5855C68.6451 29.4012 68.1663 29.146 67.7947 28.8199L69.0167 26.4592C69.2739 26.6861 69.5669 26.8633 69.8956 26.9909C70.2386 27.1185 70.5744 27.1823 70.9031 27.1823C71.3604 27.1823 71.732 27.0689 72.0179 26.842C72.3037 26.6293 72.5609 26.2678 72.7896 25.7574L72.8325 25.651L67.8376 14.1242H71.289L74.526 21.8867L77.7844 14.1242H81Z" fill="url(#paint6_linear_122_215)"/>
<defs>
<linearGradient id="paint0_linear_122_215" x1="24.4673" y1="18.0043" x2="86.0895" y2="24.1257" gradientUnits="userSpaceOnUse">
<stop stop-color="#9EC8B9"/>
<stop offset="1" stop-color="#5C8374" stop-opacity="0.66"/>
</linearGradient>
<linearGradient id="paint1_linear_122_215" x1="24.4673" y1="18.0043" x2="86.0895" y2="24.1257" gradientUnits="userSpaceOnUse">
<stop stop-color="#9EC8B9"/>
<stop offset="1" stop-color="#5C8374" stop-opacity="0.66"/>
</linearGradient>
<linearGradient id="paint2_linear_122_215" x1="24.4673" y1="18.0043" x2="86.0895" y2="24.1257" gradientUnits="userSpaceOnUse">
<stop stop-color="#9EC8B9"/>
<stop offset="1" stop-color="#5C8374" stop-opacity="0.66"/>
</linearGradient>
<linearGradient id="paint3_linear_122_215" x1="24.4673" y1="18.0043" x2="86.0895" y2="24.1257" gradientUnits="userSpaceOnUse">
<stop stop-color="#9EC8B9"/>
<stop offset="1" stop-color="#5C8374" stop-opacity="0.66"/>
</linearGradient>
<linearGradient id="paint4_linear_122_215" x1="24.4673" y1="18.0043" x2="86.0895" y2="24.1257" gradientUnits="userSpaceOnUse">
<stop stop-color="#9EC8B9"/>
<stop offset="1" stop-color="#5C8374" stop-opacity="0.66"/>
</linearGradient>
<linearGradient id="paint5_linear_122_215" x1="24.4673" y1="18.0043" x2="86.0895" y2="24.1257" gradientUnits="userSpaceOnUse">
<stop stop-color="#9EC8B9"/>
<stop offset="1" stop-color="#5C8374" stop-opacity="0.66"/>
</linearGradient>
<linearGradient id="paint6_linear_122_215" x1="24.4673" y1="18.0043" x2="86.0895" y2="24.1257" gradientUnits="userSpaceOnUse">
<stop stop-color="#9EC8B9"/>
<stop offset="1" stop-color="#5C8374" stop-opacity="0.66"/>
</linearGradient>
</defs>
</svg>
